# Blender 3.3.1
# www.blender.org
mtllib ７.mtl
o Text
v -0.156000 0.040000 0.271000
v 0.094000 0.040000 -0.289000
v -0.201000 0.040000 -0.289000
v -0.201000 0.040000 -0.382000
v 0.240000 0.040000 -0.382000
v -0.069000 0.040000 0.309000
v -0.156000 -0.040000 0.271000
v 0.094000 -0.040000 -0.289000
v -0.201000 -0.040000 -0.289000
v -0.201000 -0.040000 -0.382000
v 0.240000 -0.040000 -0.382000
v -0.069000 -0.040000 0.309000
v -0.156000 -0.040000 0.271000
v -0.156000 0.040000 0.271000
v 0.094000 -0.040000 -0.289000
v 0.094000 0.040000 -0.289000
v -0.201000 -0.040000 -0.289000
v -0.201000 0.040000 -0.289000
v -0.201000 -0.040000 -0.382000
v -0.201000 0.040000 -0.382000
v 0.240000 -0.040000 -0.382000
v 0.240000 0.040000 -0.382000
v -0.069000 -0.040000 0.309000
v -0.069000 0.040000 0.309000
vn -0.0000 1.0000 -0.0000
vn -0.0000 -1.0000 -0.0000
vn -0.9325 -0.0000 0.3612
vn -0.8389 -0.0000 0.5442
vn -0.7071 -0.0000 0.7071
vn -0.7071 -0.0000 -0.7071
vn 0.8391 -0.0000 -0.5440
vn 0.3609 -0.0000 0.9326
vt 0.000000 0.000000
vt 0.200000 0.000000
vt 0.400000 0.000000
vt 0.600000 0.000000
vt 0.800000 0.000000
vt 1.000000 0.000000
vt 0.000000 0.000000
vt 0.200000 0.000000
vt 0.400000 0.000000
vt 0.600000 0.000000
vt 0.800000 0.000000
vt 1.000000 0.000000
vt 0.000000 0.000000
vt 1.000000 0.000000
vt 0.000000 1.000000
vt 1.000000 1.000000
vt 0.166667 0.000000
vt 0.166667 1.000000
vt 0.333333 0.000000
vt 0.333333 1.000000
vt 0.500000 0.000000
vt 0.500000 1.000000
vt 0.666667 0.000000
vt 0.666667 1.000000
vt 0.833333 0.000000
vt 0.833333 1.000000
s 0
f 3/3/1 5/5/1 4/4/1
f 3/3/1 2/2/1 5/5/1
f 2/2/1 6/6/1 5/5/1
f 1/1/1 6/6/1 2/2/1
f 9/9/2 10/10/2 11/11/2
f 9/9/2 11/11/2 8/8/2
f 8/8/2 11/11/2 12/12/2
f 7/7/2 8/8/2 12/12/2
s 1
f 14/15/3 16/18/4 15/17/4 13/13/3
f 16/18/4 18/20/5 17/19/5 15/17/4
f 18/20/5 20/22/6 19/21/6 17/19/5
f 20/22/6 22/24/7 21/23/7 19/21/6
f 22/24/7 24/26/8 23/25/8 21/23/7
f 24/26/8 14/16/3 13/14/3 23/25/8
